<svg xmlns="http://www.w3.org/2000/svg" width="18" height="18" viewBox="0 0 18 18"><title>  icon-instagram</title><desc>  Created with Sketch.</desc><g fill="none"><g fill="#FFF"><path d="M17.9 5.3C17.9 4.5 17.8 3.8 17.5 3.1 17.3 2.5 16.9 2 16.5 1.5 16 1.1 15.5 0.7 14.9 0.5 14.2 0.2 13.5 0.1 12.7 0.1 11.8 0 11.4 0 9 0 6.6 0 6.2 0 5.3 0.1 4.5 0.1 3.8 0.2 3.1 0.5 2.5 0.7 2 1.1 1.5 1.5 1.1 2 0.7 2.5 0.5 3.1 0.2 3.8 0.1 4.5 0.1 5.3 0 6.2 0 6.6 0 9 0 11.4 0 11.8 0.1 12.7 0.1 13.5 0.2 14.2 0.5 14.9 0.7 15.5 1.1 16 1.5 16.5 2 16.9 2.5 17.3 3.1 17.5 3.8 17.8 4.5 17.9 5.3 17.9 6.2 18 6.6 18 9 18 11.4 18 11.8 18 12.7 17.9 13.5 17.9 14.2 17.8 14.9 17.5 16.1 17.1 17.1 16.1 17.5 14.9 17.8 14.2 17.9 13.5 17.9 12.7 18 11.8 18 11.4 18 9 18 6.6 18 6.2 17.9 5.3ZM16.3 12.6C16.3 13.2 16.2 13.8 16 14.3 15.7 15.1 15.1 15.7 14.3 16 13.8 16.2 13.2 16.3 12.6 16.3 11.7 16.4 11.4 16.4 9 16.4 6.6 16.4 6.3 16.4 5.4 16.3 4.8 16.3 4.2 16.2 3.7 16 3.3 15.9 2.9 15.6 2.7 15.3 2.4 15.1 2.1 14.7 2 14.3 1.8 13.8 1.7 13.2 1.7 12.6 1.6 11.7 1.6 11.4 1.6 9 1.6 6.6 1.6 6.3 1.7 5.4 1.7 4.8 1.8 4.2 2 3.7 2.1 3.3 2.4 2.9 2.7 2.7 2.9 2.4 3.3 2.1 3.7 2 4.2 1.8 4.8 1.7 5.4 1.7 6.3 1.6 6.6 1.6 9 1.6 11.4 1.6 11.7 1.6 12.6 1.7 13.2 1.7 13.8 1.8 14.3 2 14.7 2.1 15.1 2.4 15.3 2.7 15.6 2.9 15.9 3.3 16 3.7 16.2 4.2 16.3 4.8 16.3 5.4 16.4 6.3 16.4 6.6 16.4 9 16.4 11.4 16.4 11.7 16.3 12.6L16.3 12.6ZM9 4.4C6.4 4.4 4.4 6.4 4.4 9 4.4 11.6 6.4 13.6 9 13.6 11.6 13.6 13.6 11.6 13.6 9 13.6 6.4 11.6 4.4 9 4.4L9 4.4ZM9 12C7.3 12 6 10.7 6 9 6 7.3 7.3 6 9 6 10.7 6 12 7.3 12 9 12 9.8 11.7 10.6 11.1 11.1 10.6 11.7 9.8 12 9 12ZM14.9 4.2C14.9 4.8 14.4 5.3 13.8 5.3 13.2 5.3 12.7 4.8 12.7 4.2 12.7 3.6 13.2 3.1 13.8 3.1 14.4 3.1 14.9 3.6 14.9 4.2L14.9 4.2Z"/></g></g></svg>