<svg width="35" height="25" xmlns="http://www.w3.org/2000/svg"><g fill="#939393" fill-rule="nonzero" stroke="#979797"><path d="M33.846 12.703c-.147-.17-3.653-4.178-8.489-6.632a.656.656 0 00-.873.273.628.628 0 00.279.856c3.725 1.889 6.7 4.837 7.718 5.913-1.545 1.64-7.625 7.617-14.034 7.617-2.175 0-4.367-.514-6.517-1.53a.653.653 0 00-.865.297.627.627 0 00.302.846c2.327 1.1 4.709 1.657 7.08 1.657 7.985 0 15.1-8.13 15.4-8.477a.624.624 0 00-.001-.82zM20.564 4.737c-1.457-.49-2.87-.737-4.2-.737C8.476 4 1.447 12.197 1.15 12.546a.64.64 0 00-.036.78c.089.127 2.205 3.13 5.873 5.566a.634.634 0 00.886-.18.638.638 0 00-.18-.886c-2.693-1.79-4.537-3.952-5.227-4.832 1.474-1.6 7.52-7.714 13.897-7.714 1.192 0 2.468.225 3.792.67a.631.631 0 00.81-.403.639.639 0 00-.402-.81zM27.813 1.187a.64.64 0 00-.903 0L5.187 22.91a.64.64 0 00.903.903L27.813 2.09a.64.64 0 000-.903z"/></g></svg>