<svg width="22" height="22" xmlns="http://www.w3.org/2000/svg"><path d="M16.78 13.041a.74.74 0 01.365.387.593.593 0 01-.022.515c-.014.043-.136.272-.365.688-.23.415-.591.863-1.085 1.343s-1.128.92-1.902 1.32c-.773.402-1.711.602-2.814.602a.095.095 0 00-.043.011.095.095 0 01-.043.011c-1.045 0-1.944-.2-2.696-.602-.752-.4-1.372-.841-1.859-1.32-.487-.48-.848-.932-1.085-1.354a58.031 58.031 0 01-.376-.677.674.674 0 01-.032-.537c.065-.172.19-.301.376-.387a.677.677 0 01.516-.01c.172.064.3.182.387.354.014.028.118.211.311.548.193.336.483.694.87 1.074.387.38.877.73 1.472 1.053.594.322 1.307.483 2.138.483l.021-.01a.095.095 0 01.043-.012c.874 0 1.622-.164 2.245-.494.623-.33 1.132-.687 1.526-1.074.393-.387.683-.741.87-1.063.186-.323.279-.49.279-.505a.615.615 0 01.376-.355.704.704 0 01.526.011zM11 0c1.518 0 2.947.286 4.286.86a11.038 11.038 0 013.502 2.352c.996.995 1.78 2.163 2.353 3.502C21.714 8.054 22 9.482 22 11c0 1.518-.286 2.947-.86 4.286a11.038 11.038 0 01-2.352 3.502 11.038 11.038 0 01-3.502 2.353c-1.34.573-2.768.859-4.286.859-1.518 0-2.947-.286-4.286-.86a11.038 11.038 0 01-3.502-2.352 11.038 11.038 0 01-2.353-3.502A10.782 10.782 0 010 11c0-1.518.286-2.947.86-4.286a11.038 11.038 0 012.352-3.502A11.038 11.038 0 016.714.859C8.054.286 9.482 0 11 0zm0 20.625a9.285 9.285 0 003.749-.763 9.805 9.805 0 003.05-2.062 9.805 9.805 0 002.063-3.051A9.285 9.285 0 0020.625 11a9.285 9.285 0 00-.763-3.749 9.805 9.805 0 00-2.062-3.05 9.805 9.805 0 00-3.051-2.063A9.285 9.285 0 0011 1.375a9.285 9.285 0 00-3.749.763A9.805 9.805 0 004.201 4.2a9.805 9.805 0 00-2.063 3.051A9.285 9.285 0 001.375 11c0 1.332.254 2.582.763 3.749a9.805 9.805 0 002.062 3.05 9.805 9.805 0 003.051 2.063 9.285 9.285 0 003.749.763zM7.562 10.312c-.386 0-.712-.136-.977-.408a1.34 1.34 0 01-.397-.966c0-.373.132-.695.397-.967s.59-.409.978-.409c.372 0 .69.137.956.409.265.272.397.594.397.966 0 .373-.132.695-.397.967a1.286 1.286 0 01-.957.409zm6.875 0c-.386 0-.712-.136-.977-.408a1.34 1.34 0 01-.398-.966c0-.373.133-.695.398-.967s.59-.409.977-.409c.373 0 .692.137.957.409.265.272.397.594.397.966 0 .373-.132.695-.397.967a1.286 1.286 0 01-.957.409z" fill="#FFF" fill-rule="evenodd"/></svg>