<svg width="22" height="13" xmlns="http://www.w3.org/2000/svg"><path d="M20.281 0c-.472 0-.877.168-1.214.505a1.655 1.655 0 00-.472 1.504c.021.093.046.182.075.268l-4.19 3.61a2.32 2.32 0 00-.504-.28 1.519 1.519 0 00-.57-.107 1.697 1.697 0 00-1.203.494L8.916 4.34a1.656 1.656 0 00-.526-1.128 1.633 1.633 0 00-1.171-.462c-.473 0-.878.168-1.214.505A1.655 1.655 0 005.5 4.469a1.636 1.636 0 00.172.73L2.32 9.045c-.1-.029-.2-.054-.3-.075a1.655 1.655 0 00-1.515.473A1.655 1.655 0 000 10.655c0 .473.168.878.505 1.214.336.337.741.505 1.214.505.472 0 .877-.168 1.214-.505.336-.336.505-.741.505-1.214 0-.114-.011-.225-.033-.333a1.57 1.57 0 00-.096-.311l3.394-3.91a1.697 1.697 0 00.516.085 1.726 1.726 0 001.268-.559l3.2 1.612c0 .473.169.874.505 1.203.337.33.742.495 1.214.495.473 0 .878-.169 1.214-.505.337-.337.505-.742.505-1.214v-.086l4.469-3.846c.1.043.207.079.322.108.115.028.236.042.365.042.473 0 .878-.168 1.214-.504.337-.337.505-.742.505-1.214 0-.473-.168-.878-.505-1.214A1.655 1.655 0 0020.281 0z" fill="#FFF" fill-rule="evenodd"/></svg>