<svg xmlns="http://www.w3.org/2000/svg" width="23" height="22" viewBox="0 0 23 22"><title>  home - simple-line-icons</title><g fill="none"><g fill="#FFFF"><path d="M21.9 11C22 11.2 22.1 11.3 22.1 11.5 22.1 11.7 22 11.9 21.9 12 21.8 12.1 21.7 12.1 21.6 12.1 21.6 12.2 21.5 12.2 21.4 12.2 21.3 12.2 21.2 12.2 21.1 12.1 21 12.1 21 12.1 20.9 12L20 11 20 21.3C20 21.5 19.9 21.7 19.8 21.8 19.6 21.9 19.5 22 19.3 22L14.5 22C14.3 22 14.1 21.9 14 21.8 13.9 21.7 13.8 21.5 13.8 21.3L13.8 14.4 8.3 14.4 8.3 21.3C8.3 21.5 8.2 21.7 8.1 21.8 7.9 21.9 7.8 22 7.6 22L2.8 22C2.6 22 2.4 21.9 2.3 21.8 2.2 21.7 2.1 21.5 2.1 21.3L2.1 11 1.2 12C1 12.1 0.9 12.2 0.7 12.2 0.5 12.2 0.3 12.1 0.2 12 0.1 11.9 0 11.7 0 11.5 0 11.3 0.1 11.2 0.2 11L10.6 0.2C10.6 0.1 10.7 0.1 10.8 0.1 10.9 0 11 0 11.1 0 11.2 0 11.2 0 11.3 0.1 11.4 0.1 11.5 0.1 11.5 0.2L21.9 11ZM18.6 9.7C18.6 9.7 18.6 9.6 18.6 9.6L11.1 1.7 3.5 9.6C3.5 9.6 3.5 9.7 3.5 9.7 3.5 9.7 3.5 9.7 3.5 9.8L3.5 20.6 6.9 20.6 6.9 13.8C6.9 13.6 7 13.4 7.1 13.3 7.3 13.1 7.4 13.1 7.6 13.1L14.5 13.1C14.7 13.1 14.8 13.1 15 13.3 15.1 13.4 15.2 13.6 15.2 13.8L15.2 20.6 18.6 20.6 18.6 9.7Z"/></g></g></svg>