<svg width="22" height="14" xmlns="http://www.w3.org/2000/svg"><path d="M2.063 5.5H.687a.66.66 0 00-.483.204.66.66 0 00-.204.484v1.375a.66.66 0 00.204.483.66.66 0 00.484.204h1.375a.66.66 0 00.483-.204.66.66 0 00.204-.483V6.188a.66.66 0 00-.204-.484.66.66 0 00-.483-.204zm19.25.688H6.874a.66.66 0 00-.483.204.66.66 0 00-.205.483.66.66 0 00.205.483.66.66 0 00.483.205h14.438a.66.66 0 00.483-.205.66.66 0 00.204-.483.66.66 0 00-.204-.483.66.66 0 00-.483-.205zM2.063 11H.687a.66.66 0 00-.483.204.66.66 0 00-.204.483v1.376a.66.66 0 00.204.483.66.66 0 00.484.204h1.375a.66.66 0 00.483-.204.66.66 0 00.204-.483v-1.376a.66.66 0 00-.204-.483.66.66 0 00-.483-.204zm19.25.688H6.874a.66.66 0 00-.483.204.66.66 0 00-.205.483.66.66 0 00.205.483.66.66 0 00.483.204h14.438a.66.66 0 00.483-.204.66.66 0 00.204-.483.66.66 0 00-.204-.483.66.66 0 00-.483-.204zM2.063 0H.687a.66.66 0 00-.483.204A.66.66 0 000 .688v1.375a.66.66 0 00.204.483.66.66 0 00.484.204h1.375a.66.66 0 00.483-.204.66.66 0 00.204-.483V.687a.66.66 0 00-.204-.483A.66.66 0 002.063 0zm4.812 2.063h14.438a.66.66 0 00.483-.205.66.66 0 00.204-.483.66.66 0 00-.204-.483.66.66 0 00-.483-.205H6.874a.66.66 0 00-.483.205.66.66 0 00-.205.483.66.66 0 00.205.483.66.66 0 00.483.204z" fill="#FFF" fill-rule="evenodd"/></svg>