<svg width="19" height="22" xmlns="http://www.w3.org/2000/svg"><path d="M16.543 0c.573 0 1.06.2 1.46.602.402.4.602.888.602 1.46v17.875c0 .573-.2 1.06-.601 1.461a1.989 1.989 0 01-1.461.602H2.814c-.257 0-.555-.086-.891-.258-.337-.172-.505-.544-.505-1.117v-2.771H.709a.637.637 0 01-.462-.205.66.66 0 01-.204-.483c0-.186.068-.344.204-.473A.654.654 0 01.71 16.5h.709v-2.75H.709a.637.637 0 01-.462-.204.66.66 0 01-.204-.483c0-.187.068-.344.204-.473a.654.654 0 01.462-.194h.709V9.604H.73a.643.643 0 01-.472-.194.643.643 0 01-.194-.473c0-.186.065-.343.194-.472A.643.643 0 01.73 8.27h.688V5.5H.666a.643.643 0 01-.473-.193A.643.643 0 010 4.834a.68.68 0 01.193-.483.626.626 0 01.473-.205h.752V1.418c0-.344.115-.666.344-.967C1.99.151 2.349 0 2.836 0h13.707zM2.793 20.625h11V1.375h-11v2.771h.666c.186 0 .344.069.473.205a.68.68 0 01.193.483.643.643 0 01-.193.473.643.643 0 01-.473.193h-.666v2.771h.73c.187 0 .344.065.473.194a.643.643 0 01.193.473.643.643 0 01-.193.472.643.643 0 01-.473.194h-.73v2.792h.709a.68.68 0 01.483.194.626.626 0 01.204.473.66.66 0 01-.204.483.66.66 0 01-.483.204h-.709v2.75h.709a.68.68 0 01.483.193.626.626 0 01.204.473.66.66 0 01-.204.483.66.66 0 01-.483.205h-.709v2.771zm14.437-.688V2.063a.66.66 0 00-.204-.483.66.66 0 00-.483-.204h-1.375v19.25h1.375a.66.66 0 00.483-.204.66.66 0 00.204-.483z" fill="#FFF" fill-rule="evenodd"/></svg>