<svg width="22" height="22" xmlns="http://www.w3.org/2000/svg"><path d="M20.625 8.916c.33.057.64.218.935.483.293.265.44.591.44.978v1.375c0 .372-.147.673-.44.902-.294.23-.606.387-.935.473l-1.783.43c-.072.214-.147.419-.226.612a5.878 5.878 0 01-.268.57l.945 1.59c.186.286.3.615.344.987.043.373-.072.695-.344.967l-.967.967a1.242 1.242 0 01-.988.376 2.024 2.024 0 01-1.01-.312l-1.547-.988c-.2.1-.4.194-.601.28a6.74 6.74 0 01-.645.236l-.387 1.783c-.057.33-.218.64-.483.935-.265.293-.59.44-.977.44h-1.376a1.09 1.09 0 01-.902-.44 2.565 2.565 0 01-.473-.935l-.43-1.762a8.802 8.802 0 01-.687-.247 7.064 7.064 0 01-.666-.311l-1.59 1.01c-.272.186-.605.29-.999.311a1.193 1.193 0 01-.977-.376l-.988-.967a1.151 1.151 0 01-.323-.967 2.44 2.44 0 01.323-.988l1.01-1.676a11.833 11.833 0 01-.248-.526 4.442 4.442 0 01-.204-.57l-1.783-.429a2.565 2.565 0 01-.935-.473 1.09 1.09 0 01-.44-.902v-1.375c0-.387.147-.713.44-.978.294-.265.606-.426.935-.483l1.762-.387c.057-.2.129-.4.215-.601.086-.2.171-.394.257-.58L2.6 5.672a2.44 2.44 0 01-.322-.988 1.151 1.151 0 01.323-.967l.988-.967c.258-.272.584-.397.977-.376.394.022.727.125 1 .312l1.59 1.01a7.81 7.81 0 011.331-.56l.451-1.761c.072-.33.223-.64.452-.935.229-.293.537-.44.924-.44h1.374c.387 0 .71.147.967.44.258.294.423.598.494.914l.387 1.804a9.581 9.581 0 011.246.516l1.547-.988c.287-.187.623-.29 1.01-.312.387-.021.716.104.988.376l.967.967c.272.272.387.594.344.967a2.261 2.261 0 01-.344.988l-.945 1.59c.1.2.197.404.29.612.093.208.168.426.225.655l1.762.387zm0 2.729l.021-1.225a.755.755 0 00-.107-.075.574.574 0 00-.193-.075l-2.557-.58-.236-.752a3.628 3.628 0 00-.172-.516 6.026 6.026 0 00-.258-.537l-.344-.688 1.354-2.256a.695.695 0 00.096-.171.412.412 0 00.033-.13l-.903-.88a.51.51 0 00-.279.086l-2.213 1.418-.709-.366a16.874 16.874 0 00-.515-.247 2.793 2.793 0 00-.538-.182l-.751-.258-.56-2.6a.632.632 0 00-.064-.16l-.043-.076H10.42a.5.5 0 00-.086.129.764.764 0 00-.064.215L9.646 4.21l-.73.236a5.846 5.846 0 00-.559.204 6.616 6.616 0 00-.558.269l-.71.365-2.298-1.46-.107-.054a.984.984 0 00-.13-.054l-.902.902c0 .043.011.093.033.15.021.058.053.122.096.194l1.397 2.32-.344.666c-.086.186-.161.358-.226.516a4.091 4.091 0 00-.16.473l-.237.751-2.6.58a.787.787 0 00-.14.065.292.292 0 01-.096.043v1.268a.36.36 0 00.129.075c.057.021.129.04.215.053l2.513.645.237.73c.043.144.096.29.16.44.065.151.14.305.226.463l.323.666-1.397 2.342a.695.695 0 00-.096.171.438.438 0 00-.033.15l.903.882c.043 0 .09-.011.14-.033a.866.866 0 00.139-.075l2.256-1.44.709.366c.186.1.372.19.558.269.187.078.373.146.559.204l.73.236.645 2.535a.931.931 0 00.054.183c.021.05.046.09.075.118h1.246a.755.755 0 00.075-.107.599.599 0 00.075-.172l.559-2.557.752-.258a7.54 7.54 0 001.031-.43l.71-.365 2.255 1.44.107.053c.043.022.086.04.13.054l.902-.902a.438.438 0 00-.033-.15 1.211 1.211 0 00-.096-.194l-1.354-2.234.344-.688a4.22 4.22 0 00.226-.483c.064-.165.125-.333.182-.505l.237-.709 2.556-.645a.931.931 0 00.183-.053.373.373 0 00.118-.075zM11 6.875c1.146 0 2.123.401 2.933 1.203.809.802 1.213 1.776 1.213 2.922 0 1.146-.404 2.12-1.213 2.922-.81.802-1.787 1.203-2.933 1.203-1.132 0-2.102-.401-2.911-1.203-.81-.802-1.214-1.776-1.214-2.922 0-1.146.405-2.12 1.214-2.922.81-.802 1.78-1.203 2.911-1.203zm0 6.875a2.65 2.65 0 001.944-.806A2.65 2.65 0 0013.75 11a2.65 2.65 0 00-.806-1.944A2.65 2.65 0 0011 8.25a2.65 2.65 0 00-1.944.806A2.65 2.65 0 008.25 11c0 .76.269 1.407.806 1.944A2.65 2.65 0 0011 13.75z" fill="#FFF" fill-rule="evenodd"/></svg>