<svg xmlns="http://www.w3.org/2000/svg" width="22" height="22" viewBox="0 0 22 22"><title>  User - simple-line-icons</title><g fill="none"><g fill="#FFF"><path d="M11 1.4C10.4 1.4 9.8 1.5 9.3 1.7 8.7 1.9 8.2 2.2 7.7 2.6 7.3 2.9 6.9 3.3 6.6 3.7 6.3 4.1 6.2 4.5 6.2 4.8L6.2 8.3C6.2 8.9 6.4 9.8 6.7 10.8 7 11.9 7.6 12.7 8.3 13.3 8.5 13.4 8.6 13.6 8.7 13.8 8.8 14 8.8 14.3 8.8 14.5 8.7 14.7 8.7 14.9 8.5 15.1 8.4 15.3 8.2 15.5 8 15.6L2 18.4C1.9 18.5 1.8 18.5 1.6 18.6 1.5 18.7 1.4 18.9 1.4 19.2L1.4 20.6 20.6 20.6 20.6 19.3C20.6 18.9 20.5 18.7 20.3 18.6 20.2 18.5 20.1 18.4 20 18.4L14.1 15.6C13.8 15.5 13.7 15.4 13.5 15.2 13.4 15 13.3 14.7 13.3 14.5 13.2 14.3 13.3 14 13.4 13.8 13.4 13.6 13.6 13.4 13.8 13.3 14.5 12.7 15 11.9 15.4 10.8 15.7 9.8 15.8 8.9 15.8 8.3L15.8 4.8C15.8 4.4 15.7 4.1 15.4 3.7 15.1 3.3 14.7 2.9 14.3 2.5 13.8 2.2 13.3 1.9 12.7 1.7 12.1 1.5 11.6 1.4 11 1.4ZM11 0C11.8 0 12.5 0.1 13.2 0.4 14 0.7 14.6 1.1 15.2 1.5 15.8 2 16.3 2.5 16.6 3.1 17 3.7 17.2 4.2 17.2 4.8L17.2 8.3C17.2 8.7 17.1 9.1 17.1 9.7 17 10.2 16.8 10.8 16.6 11.4 16.4 11.9 16.2 12.5 15.8 13 15.5 13.5 15.1 14 14.6 14.3L20.6 17.2 21.3 17.6C21.8 17.8 22 18.1 22 18.5L22 20.6C22 21 21.8 21.3 21.6 21.6 21.3 21.8 21 22 20.6 22L1.4 22C1 22 0.7 21.8 0.4 21.6 0.1 21.3 0 21 0 20.6L0 18.5C0 18.2 0.2 17.8 0.7 17.6L1.4 17.2 7.4 14.3C6.9 13.9 6.5 13.5 6.2 12.9 5.9 12.4 5.6 11.8 5.4 11.3 5.2 10.7 5 10.2 4.9 9.6 4.9 9.1 4.8 8.6 4.8 8.3L4.8 4.8C4.8 4.2 5 3.7 5.3 3.1 5.7 2.5 6.2 2 6.8 1.5 7.3 1.1 8 0.7 8.7 0.4 9.5 0.1 10.2 0 11 0Z"/></g></g></svg>